<svg width="25" height="25" viewBox="0 0 25 25" fill="none" xmlns="http://www.w3.org/2000/svg">
<path d="M1.63528 2.40398L2.40443 1.63482H1.05817L11.8271 12.404C12.2118 12.7887 12.827 12.7887 13.1734 12.404C16.7501 8.82722 20.3655 5.21172 23.9423 1.63482H22.5961C22.8654 1.90418 23.0961 2.1349 23.3652 2.40398V1.0577L12.5963 11.8269C12.2115 12.2116 12.2115 12.8268 12.5963 13.1731L23.3652 23.9423V22.596C23.0959 22.8654 22.8651 23.0961 22.5961 23.3652H23.9423L13.1734 12.596C12.7887 12.2113 12.1735 12.2113 11.8271 12.596L1.05817 23.3652H2.40443L1.63528 22.596V23.9423C5.21198 20.3655 8.8274 16.75 12.4042 13.1731C12.7889 12.7884 12.7889 12.1732 12.4042 11.8269L1.63528 1.0577C0.750761 0.173159 -0.595426 1.55778 0.289028 2.40398C3.86572 5.98074 7.48115 9.59624 11.058 13.1731V11.8269C7.48129 15.4036 3.86586 19.0191 0.289028 22.596C-0.0956867 22.9807 -0.0956867 23.5959 0.289028 23.9423L1.05817 24.7115C1.44289 25.0962 2.05808 25.0962 2.40443 24.7115L13.1734 13.9423H11.8271C15.4038 17.5191 19.0192 21.1346 22.5961 24.7115C22.9808 25.0962 23.596 25.0962 23.9423 24.7115L24.7115 23.9423C25.0962 23.5576 25.0962 22.9424 24.7115 22.596L13.9425 11.8269V13.1731L24.7115 2.40398C25.0962 2.01926 25.0962 1.40406 24.7115 1.0577C24.4421 0.78834 24.2114 0.55762 23.9423 0.288542C23.5576 -0.0961807 22.9424 -0.0961807 22.5961 0.288542C19.0194 3.8653 15.4039 7.4808 11.8271 11.0577H13.1734L2.40443 0.288542C2.01971 -0.0961807 1.40452 -0.0961807 1.05817 0.288542L0.289028 1.0577C-0.59522 1.90385 0.750741 3.25013 1.63528 2.40398Z" fill="#C7005F"/>
</svg>
