<svg width="19" height="10" viewBox="0 0 19 10" fill="none" xmlns="http://www.w3.org/2000/svg">
<path d="M18.5151 1.98157L10.1422 9.74654C10.0425 9.83871 9.93453 9.90384 9.81824 9.94194C9.70194 9.98064 9.57735 10 9.44444 10C9.31154 10 9.18694 9.98065 9.07065 9.94194C8.95436 9.90384 8.84638 9.83871 8.7467 9.74654L0.348871 1.98157C0.11629 1.76651 -3.71648e-07 1.4977 -3.85748e-07 1.17511C-3.99848e-07 0.852534 0.124596 0.576037 0.37379 0.345622C0.622984 0.115207 0.91371 -3.99396e-08 1.24597 -5.4463e-08C1.57823 -6.89865e-08 1.86895 0.115207 2.11815 0.345622L9.44444 7.11981L16.7707 0.345621C17.0033 0.130568 17.2897 0.02304 17.63 0.02304C17.9709 0.02304 18.2659 0.138247 18.5151 0.368662C18.7643 0.599077 18.8889 0.867894 18.8889 1.17511C18.8889 1.48233 18.7643 1.75115 18.5151 1.98157Z" fill="#287EFF"/>
</svg>
