<svg width="7" height="13" viewBox="0 0 7 13" fill="none" xmlns="http://www.w3.org/2000/svg">
<path d="M0.11871 0.109122C0.188685 0.0397968 0.283865 0.000557875 0.383377 1.52253e-05C0.48308 -0.000890774 0.578903 0.0385303 0.648044 0.109122L6.88931 6.23593C6.96012 6.30453 7 6.39805 7 6.49573C7 6.59342 6.96012 6.68694 6.88931 6.75554L0.648045 12.8835C0.578715 12.9563 0.482245 12.9983 0.380778 13C0.279229 13.0016 0.181466 12.9628 0.109636 12.8923C0.0379043 12.8219 -0.00169775 12.7258 5.58224e-05 12.6262C0.00171753 12.5266 0.0445522 12.4319 0.118682 12.3639L6.09526 6.49573L0.118681 0.628982C0.0481505 0.560202 0.0085461 0.466681 0.00854609 0.369085C0.00854609 0.271578 0.0481505 0.178058 0.118681 0.109282L0.11871 0.109122Z" fill="white"/>
</svg>
