<svg width="10" height="19" viewBox="0 0 10 19" fill="none" xmlns="http://www.w3.org/2000/svg">
<path d="M1.98157 0.373573L9.74655 8.74649C9.83871 8.84616 9.90384 8.95415 9.94194 9.07044C9.98065 9.18673 10 9.31132 10 9.44423C10 9.57713 9.98065 9.70173 9.94194 9.81802C9.90384 9.93431 9.83871 10.0423 9.74654 10.142L1.98157 18.5398C1.76651 18.7724 1.49769 18.8887 1.17511 18.8887C0.852534 18.8887 0.576036 18.7641 0.345622 18.5149C0.115207 18.2657 7.98791e-08 17.975 1.08926e-07 17.6427C1.37973e-07 17.3104 0.115207 17.0197 0.345622 16.7705L7.11982 9.44423L0.345624 2.11793C0.13057 1.88535 0.0230423 1.59894 0.0230423 1.25871C0.0230423 0.917811 0.13825 0.622766 0.368664 0.373572C0.59908 0.124377 0.867897 -0.000218236 1.17512 -0.000218209C1.48234 -0.000218182 1.75115 0.124377 1.98157 0.373573Z" fill="white"/>
</svg>
