<svg width="7" height="13" viewBox="0 0 7 13" fill="none" xmlns="http://www.w3.org/2000/svg">
<path d="M6.88129 0.109122C6.81132 0.0397972 6.71614 0.000558086 6.61662 1.52253e-05C6.51692 -0.000890976 6.4211 0.0385305 6.35196 0.109122L0.110688 6.23593C0.0398812 6.30453 5.77161e-07 6.39805 5.68621e-07 6.49573C5.60081e-07 6.59342 0.0398811 6.68694 0.110688 6.75554L6.35196 12.8835C6.42129 12.9563 6.51776 12.9983 6.61922 13C6.72077 13.0016 6.81853 12.9628 6.89036 12.8923C6.9621 12.8219 7.0017 12.7258 6.99994 12.6262C6.99828 12.5266 6.95545 12.4319 6.88132 12.3639L0.904742 6.49573L6.88132 0.628982C6.95185 0.560202 6.99145 0.46668 6.99145 0.369085C6.99145 0.271578 6.95185 0.178058 6.88132 0.109282L6.88129 0.109122Z" fill="white"/>
</svg>
