<svg width="38" height="35" viewBox="0 0 38 35" fill="none" xmlns="http://www.w3.org/2000/svg">
<path d="M37.1628 2.78287C37.1608 2.78972 37.1589 2.79664 37.1572 2.80361L30.3858 30.191L30.3858 30.1911C30.1464 31.1602 29.0258 31.678 28.0965 31.2069L28.0964 31.2068L19.5322 26.8682C19.3011 26.7512 19.0188 26.83 18.8818 27.0499L14.8323 33.5514L14.8321 33.5518C13.9834 34.9167 11.8666 34.2927 11.8666 32.7472V25.5029C11.8666 25.087 12.0439 24.6823 12.3603 24.3813C12.3607 24.381 12.3611 24.3806 12.3614 24.3803L29.0488 8.74753C29.1584 8.64487 29.2161 8.4984 29.2058 8.34859C29.1881 8.0883 29.0419 7.84957 28.8201 7.7163C28.5737 7.56823 28.258 7.56536 27.9894 7.74645L27.987 7.74813L8.31524 21.1839L1.88774 17.93C0.697109 17.3259 0.751075 15.6451 1.977 15.1225L1.97754 15.1223L34.9718 1.01206L34.9723 1.01186C36.187 0.49087 37.4506 1.55984 37.1628 2.78287Z" stroke="white" stroke-opacity="0.7" stroke-linejoin="round"/>
</svg>
