<svg width="38" height="38" viewBox="0 0 38 38" fill="none" xmlns="http://www.w3.org/2000/svg">
<path d="M18.5903 0.500116C18.5939 0.500116 18.5974 0.500078 18.601 0.500003C28.6 0.505956 36.6802 8.58985 36.6802 18.5903C36.6802 28.5944 28.594 36.6806 18.5899 36.6806C14.9618 36.6806 11.5866 35.6269 8.76853 33.7984L8.76801 33.7981C8.40995 33.5664 7.96679 33.5063 7.56003 33.6353C7.55147 33.6378 7.54294 33.6405 7.53447 33.6434L2.26852 35.4606L3.87545 30.0834C3.87585 30.0822 3.87625 30.0809 3.87664 30.0796C4.0057 29.6653 3.93949 29.2148 3.69705 28.8551L3.69559 28.853C1.6493 25.8506 0.5 22.3622 0.5 18.5904C0.5 8.58637 8.59106 0.500116 18.5903 0.500116ZM8.19698 34.0917C8.30219 34.1156 8.40365 34.1578 8.49638 34.2178C11.3943 36.0981 14.8638 37.1806 18.5899 37.1806C28.8702 37.1806 37.1802 28.8706 37.1802 18.5903C37.1802 8.47735 29.1385 0.271034 19.0903 0.00657705L8.19698 34.0917ZM13.3101 15.4426C13.3141 15.4386 13.318 15.4345 13.3219 15.4304L14.7155 14.0512C14.8798 13.8886 14.9112 13.6346 14.7916 13.4369L11.4177 7.86171C11.2963 7.64233 11.0297 7.54588 10.795 7.63958C9.39015 8.20021 8.50859 9.00233 7.98426 9.972C7.37783 11.093 7.25802 12.468 7.55559 13.9945C8.14703 17.0289 10.4375 20.6783 13.3385 23.6456C16.2397 26.6135 19.8414 28.9778 22.8896 29.6097C24.4219 29.9274 25.8232 29.8303 26.9992 29.2146L26.7673 28.7716L26.9992 29.2146C28.0154 28.6825 28.8756 27.7791 29.5188 26.3315C29.6199 26.1039 29.5381 25.8365 29.3268 25.7045L23.8659 22.2914C23.6684 22.168 23.4119 22.1972 23.2473 22.3619L21.7535 23.8557C21.7532 23.856 21.7529 23.8563 21.7526 23.8566C21.6265 23.9806 21.4381 24.0147 21.2771 23.943L21.2755 23.9423C17.8446 22.4302 15.3658 19.6345 13.2431 15.9589C13.1465 15.7912 13.1741 15.5797 13.3101 15.4426Z" stroke="white" stroke-opacity="0.7" stroke-linejoin="round"/>
</svg>
