<svg width="25" height="25" viewBox="0 0 25 25" fill="none" xmlns="http://www.w3.org/2000/svg">
<path d="M24.7045 1.79562C24.9095 1.57508 24.996 1.32322 24.9646 1.0394C24.9646 0.771718 24.8702 0.535354 24.681 0.330646C24.476 0.110105 24.2317 0 23.948 0C23.6485 0 23.4042 0.10219 23.2153 0.306907L12.5061 11.0347L1.74959 0.306907C1.56042 0.10219 1.32401 0 1.04038 0C0.772305 0 0.527989 0.110105 0.307382 0.330646C0.102641 0.535362 0 0.771727 0 1.0394C0 1.32323 0.102634 1.57509 0.307382 1.79562L10.9929 12.4998L0.307382 23.204C0.102641 23.4246 0 23.6768 0 23.9603C0 24.2596 0.102634 24.5039 0.307382 24.6928C0.527956 24.8975 0.772278 25 1.04038 25C1.32401 25 1.56042 24.8975 1.74959 24.6928L12.5061 13.9649L23.2153 24.6928C23.357 24.8187 23.5147 24.9054 23.6881 24.9529C23.8614 25 24.0427 25 24.2316 24.9529C24.4208 24.937 24.5786 24.8503 24.7044 24.6928C24.8622 24.5668 24.9487 24.4172 24.9646 24.2438C25.0118 24.0549 25.0118 23.8657 24.9646 23.6768C24.9174 23.5034 24.8305 23.3458 24.7044 23.204L13.9716 12.4998L24.7045 1.79562Z" fill="#BF2B34"/>
</svg>
