<svg width="10" height="19" viewBox="0 0 10 19" fill="none" xmlns="http://www.w3.org/2000/svg">
<path d="M8.01843 0.373573L0.253455 8.74649C0.161289 8.84616 0.0961586 8.95415 0.0580634 9.07044C0.0193537 9.18673 -8.37278e-07 9.31132 -8.2566e-07 9.44423C-8.14041e-07 9.57713 0.0193538 9.70173 0.0580635 9.81802C0.0961587 9.93431 0.161289 10.0423 0.253455 10.142L8.01843 18.5398C8.23349 18.7724 8.50231 18.8887 8.82489 18.8887C9.14747 18.8887 9.42396 18.7641 9.65438 18.5149C9.88479 18.2657 10 17.975 10 17.6427C10 17.3104 9.88479 17.0197 9.65438 16.7705L2.88018 9.44423L9.65438 2.11793C9.86943 1.88535 9.97696 1.59894 9.97696 1.25871C9.97696 0.917811 9.86175 0.622766 9.63134 0.373572C9.40092 0.124377 9.1321 -0.000218236 8.82488 -0.000218209C8.51766 -0.000218182 8.24885 0.124377 8.01843 0.373573Z" fill="#232323" fill-opacity="0.5"/>
</svg>
