<svg width="16" height="16" viewBox="0 0 16 16" fill="none" xmlns="http://www.w3.org/2000/svg">
<path fill-rule="evenodd" clip-rule="evenodd" d="M7.72739 4.80328e-05C3.45628 4.80328e-05 0 3.45426 0 7.72744C0 9.33898 0.491448 10.8295 1.3644 12.1103C1.43016 12.2079 1.44795 12.3301 1.41264 12.4424L0.62783 15.0685L3.19964 14.181V14.1811C3.31095 14.1439 3.43317 14.1595 3.53167 14.2233C4.73625 15.0048 6.17841 15.4548 7.72723 15.4548C12.0004 15.4548 15.4546 12.0006 15.4546 7.72739C15.4546 3.45421 12.0004 0 7.72723 0L7.72739 4.80328e-05ZM4.56403 3.36864L5.97058 5.6929L5.38492 6.27248L5.38506 6.27262C5.26243 6.39619 5.23777 6.5866 5.32469 6.7374C6.21838 8.28492 7.27717 9.48884 8.75972 10.1423C8.90512 10.2069 9.07518 10.1758 9.18839 10.0638L9.81013 9.44208L12.0801 10.8608C11.8288 11.4265 11.501 11.7632 11.1263 11.9595C10.6921 12.1868 10.1619 12.2298 9.55668 12.1043C8.34631 11.8534 6.88435 10.9022 5.69298 9.68343C4.50162 8.46485 3.57961 6.98295 3.34461 5.7773C3.22711 5.17453 3.27899 4.65545 3.5016 4.24393C3.69323 3.88954 4.01879 3.5862 4.56415 3.36856L4.56403 3.36864Z" fill="white"/>
</svg>
