<?xml version="1.0" encoding="utf-8"?><svg xmlns="http://www.w3.org/2000/svg" xmlns:xlink="http://www.w3.org/1999/xlink"><symbol viewBox="0 0 25 25" id="close" xmlns="http://www.w3.org/2000/svg"><path d="M24.704 1.796a.919.919 0 00.26-.757c0-.267-.094-.504-.283-.708A.967.967 0 0023.948 0a.95.95 0 00-.733.307L12.506 11.035 1.75.307A.925.925 0 001.04 0C.772 0 .528.11.307.33A.974.974 0 000 1.04c0 .283.103.535.307.756L10.993 12.5.307 23.204c-.204.22-.307.473-.307.756 0 .3.103.544.307.733.221.204.465.307.733.307.284 0 .52-.102.71-.307l10.756-10.728 10.71 10.728c.141.126.299.212.472.26.173.047.355.047.544 0a.657.657 0 00.472-.26.639.639 0 00.26-.45 1.153 1.153 0 000-.566 1.166 1.166 0 00-.26-.473L13.972 12.5 24.704 1.796z"/></symbol><symbol viewBox="0 0 19 10" id="global-arrow" xmlns="http://www.w3.org/2000/svg"><path d="M18.515 1.982l-8.373 7.765a.88.88 0 01-.324.195c-.116.039-.24.058-.374.058-.132 0-.257-.02-.373-.058a.879.879 0 01-.324-.195L.349 1.982A1.053 1.053 0 010 1.175C0 .853.125.576.374.345A1.25 1.25 0 011.246 0c.332 0 .623.115.872.346L9.444 7.12 16.771.346c.232-.215.519-.323.859-.323.34 0 .636.115.885.346.25.23.374.499.374.806 0 .307-.125.576-.374.807z"/></symbol><symbol viewBox="0 0 10 19" id="next" xmlns="http://www.w3.org/2000/svg"><path d="M1.982.374l7.765 8.372c.092.1.157.208.195.324.039.117.058.241.058.374s-.02.258-.058.374a.88.88 0 01-.195.324L1.982 18.54a1.053 1.053 0 01-.807.349c-.322 0-.599-.125-.83-.374-.23-.25-.345-.54-.345-.872 0-.333.115-.623.346-.873L7.12 9.444.346 2.118a1.218 1.218 0 01-.323-.86c0-.34.115-.635.346-.884C.599.124.868 0 1.175 0c.307 0 .576.124.807.374z"/></symbol><symbol viewBox="0 0 10 19" id="prev" xmlns="http://www.w3.org/2000/svg"><path d="M8.018.374L.253 8.746a.879.879 0 00-.195.324C.02 9.187 0 9.311 0 9.444s.02.258.058.374a.88.88 0 00.195.324l7.765 8.398c.215.232.484.349.807.349.322 0 .599-.125.83-.374.23-.25.345-.54.345-.872 0-.333-.115-.623-.346-.873L2.88 9.444l6.774-7.326c.215-.233.323-.52.323-.86 0-.34-.115-.635-.346-.884C9.401.124 9.132 0 8.825 0c-.307 0-.576.124-.807.374z" fill-opacity=".5"/></symbol><symbol viewBox="0 0 17 16" id="tg" xmlns="http://www.w3.org/2000/svg"><path d="M16.336 1.143l-2.98 12.295a.924.924 0 01-1.321.602l-3.77-1.947-1.782 2.918c-.484.796-1.712.45-1.712-.48V11.28a.93.93 0 01.287-.666l7.345-7.02c-.006-.087-.1-.163-.193-.099L3.445 9.601.5 8.08c-.69-.357-.66-1.357.053-1.667L15.073.079a.922.922 0 011.263 1.064z"/></symbol><symbol viewBox="0 0 16 16" id="wa" xmlns="http://www.w3.org/2000/svg"><path fill-rule="evenodd" clip-rule="evenodd" d="M7.727 0A7.722 7.722 0 000 7.727C0 9.34.491 10.83 1.364 12.11c.066.098.084.22.049.332L.628 15.07l2.572-.89a.386.386 0 01.332.042 7.682 7.682 0 004.195 1.232 7.72 7.72 0 007.728-7.728A7.72 7.72 0 007.727 0zM4.564 3.369l1.407 2.324-.586.58a.386.386 0 00-.06.464c.893 1.548 1.952 2.752 3.435 3.405a.386.386 0 00.428-.078l.622-.622 2.27 1.419c-.251.566-.579.902-.954 1.098-.434.228-.964.27-1.57.145-1.21-.25-2.672-1.202-3.863-2.42-1.191-1.22-2.113-2.701-2.348-3.907-.118-.602-.066-1.122.157-1.533.191-.354.517-.658 1.062-.875z"/></symbol></svg>