<svg width="60" height="60" viewBox="0 0 60 60" fill="none" xmlns="http://www.w3.org/2000/svg">
<rect width="60" height="60" rx="10" fill="#004FC7" fill-opacity="0.1"/>
<path d="M38.9705 35.8172C41.8889 32.1074 46.2343 25.4972 46.2343 25.4972C46.2343 25.4972 47.1292 24.3567 46.9841 23.6677C46.8013 22.805 45.7479 22.3296 45.1271 21.8221C44.7993 21.5524 44.4687 21.3254 44.1221 21.0877C43.3589 20.5642 42.601 20.0434 41.8459 19.5279C40.2416 18.4329 38.6453 17.3592 37.0436 16.3256C35.4635 15.3027 33.843 14.4026 32.2333 13.4812C31.4244 13.0165 30.7472 12.7547 29.9383 13.3263C28.9575 14.0207 28.1351 15.0035 27.2806 15.8983C26.3427 16.8785 21.5673 21.9503 20.5434 22.9813C19.1971 24.338 17.8346 25.7135 16.4479 27.1103C15.8379 27.7246 15.2144 28.3336 14.6098 28.9692C13.8627 29.7518 12.5647 30.9083 13.1452 31.9926C13.7498 33.1224 14.9323 34.0011 15.8486 34.8851C18.3049 37.2514 20.8014 39.6819 23.3732 42.131C24.4481 43.1539 25.5392 44.1849 26.6141 45.2505C27.3692 46.001 28.6323 47.1495 29.761 46.9839C30.4221 46.8851 31.4701 45.7206 31.4701 45.7206C31.4701 45.7206 36.052 39.5296 38.9705 35.8172Z" fill="#855C52"/>
<path d="M36.7851 33.7045C38.4888 31.4263 40.1657 29.1267 41.7459 26.763C42.0925 26.2449 43.0492 25.1632 43.0277 24.4955C43.0143 24.1296 42.4473 23.8732 42.2 23.6622C41.7459 23.2723 41.16 22.9571 40.6575 22.6126C40.0851 22.22 39.5154 21.8273 38.9457 21.4401C37.5294 20.4732 36.089 19.5304 34.6621 18.577C33.9257 18.0855 33.1948 17.5914 32.4665 17.0866C32.0231 16.7795 31.3405 16.0771 30.7789 16.0397C30.6526 16.0317 30.6767 16.0103 30.5397 16.0904C30.1178 16.3335 29.7281 16.8009 29.4003 17.1588C28.9273 17.6742 28.4678 18.2004 27.984 18.7078C27.2773 19.445 23.6816 23.2616 22.9104 24.0388C21.8999 25.0564 20.8384 26.0259 19.8199 27.0381C18.8794 27.9729 18.0812 29.0065 17.1917 29.9813C16.8182 30.3873 16.9283 30.5743 17.2132 30.9669C17.9334 31.9631 19.1615 32.7056 20.1128 33.4935C21.951 35.0185 23.6762 36.6343 25.3693 38.3116C26.6296 39.5589 28.0647 40.6112 29.3895 41.7837C29.5911 41.96 29.7684 42.1709 30.0721 42.0775C30.1796 42.0454 30.2736 41.9279 30.3489 41.8585C31.5931 40.7073 32.5955 39.2277 33.614 37.887C34.6728 36.4955 35.7343 35.104 36.7851 33.7045Z" fill="white"/>
<path d="M43.0871 17.0737C43.0226 16.8386 42.9124 16.6063 42.7619 16.3846C42.3669 15.7943 41.8133 15.3483 41.257 14.921C40.4427 14.296 39.3517 13.7699 38.3144 13.7298C37.7877 13.7111 37.398 14.0263 37.0513 14.3788C36.8955 14.5364 36.7611 14.6859 36.5246 14.6779C36.3016 14.6699 36.0973 14.5417 35.8823 14.507C35.2293 14.4002 34.6757 14.8328 34.2646 15.2842C33.8158 15.773 33.3751 16.2965 32.9881 16.8253C32.7113 17.2019 32.4587 17.6105 32.3082 18.0538C32.0717 18.7563 32.1577 19.4106 32.7382 19.894C33.3428 20.3988 33.8749 20.9998 34.4849 21.4939C35.3207 22.1696 36.2774 22.669 37.1803 23.2459C38.4649 24.0659 39.5075 24.3837 40.7491 23.278C40.7948 23.2379 40.8378 23.1952 40.8835 23.1524C41.4021 22.6557 41.8616 22.0841 42.2003 21.4511C42.2943 21.2722 42.3427 21.0772 42.4099 20.8903C42.4582 20.7567 42.5523 20.6339 42.5926 20.5057C42.7001 20.1745 42.606 19.7017 42.6034 19.3572C42.598 18.9646 42.856 18.6922 42.9984 18.345C43.1784 17.907 43.1999 17.4796 43.0871 17.0737Z" fill="#78A3AD"/>
<path d="M43.6038 16.9024C43.5312 16.6433 43.413 16.3923 43.2491 16.1492C42.8164 15.5029 42.2091 15.0141 41.5963 14.5467C40.7041 13.8603 39.5083 13.2861 38.3769 13.2434C37.7991 13.222 37.3719 13.5665 36.9903 13.9538C36.8236 14.1247 36.6731 14.2903 36.4125 14.2823C36.1706 14.2716 35.9476 14.1328 35.7084 14.0954C34.9936 13.9779 34.3889 14.4533 33.9374 14.9447C33.4483 15.4788 32.9646 16.0531 32.54 16.6326C32.2364 17.0466 31.9596 17.4926 31.7956 17.9787C31.535 18.7479 31.629 19.4637 32.2659 19.9925C32.927 20.5454 33.5102 21.2024 34.1793 21.7446C35.0957 22.4844 36.1437 23.0319 37.1327 23.6622C38.5408 24.5596 39.683 24.9095 41.0401 23.697C41.0911 23.6515 41.1422 23.6061 41.1906 23.5581C41.7576 23.0159 42.2628 22.3883 42.6337 21.6938C42.7385 21.4989 42.7895 21.2852 42.8621 21.0796C42.9131 20.9353 43.0153 20.7991 43.0636 20.6576C43.1819 20.2943 43.0771 19.7789 43.0744 19.3996C43.0717 18.9696 43.3512 18.6705 43.5043 18.2912C43.7059 17.8158 43.7274 17.3484 43.6038 16.9024ZM38.9574 14.5734C39.5513 14.6936 40.1076 14.9821 40.6155 15.3052C41.1691 15.6578 42.3972 16.5498 41.5829 17.2816C41.2336 17.5968 41.0857 17.1962 40.8331 17.0039C40.3279 16.6166 39.8093 16.2374 39.2933 15.8634C39.0461 15.6845 37.9469 15.2572 38.0249 14.8806C38.0921 14.5441 38.4683 14.4746 38.9574 14.5734ZM39.8523 22.5058C39.1374 22.9651 38.4656 22.674 37.7696 22.2467C37.1058 21.8407 36.4017 21.4989 35.7729 21.0422C35.0124 20.4946 34.2545 19.8643 33.5317 19.2687C32.7765 18.6464 33.5021 17.3618 33.9966 16.8223C34.2949 16.4964 34.749 16.0237 35.1467 15.818C35.7272 15.5189 36.2942 15.8955 36.8236 16.1679C38.1189 16.8276 39.3659 17.6021 40.4703 18.5503C40.8466 18.8735 41.5775 19.461 41.4888 20.0326C41.4566 20.2382 41.3222 20.5214 41.2443 20.711C40.9729 21.3653 40.508 22.0491 39.9221 22.463C39.8953 22.4791 39.8738 22.4924 39.8523 22.5058Z" fill="#232323"/>
<path d="M34.6516 16.6647C34.6516 16.6647 35.2831 15.7807 35.8179 16.0397C36.2479 16.2454 38.5213 17.5968 38.9486 17.9146C39.3759 18.2325 38.9674 18.2111 38.4864 18.0829C38.0054 17.9547 36.4897 17.1695 35.9549 17.2763C35.4202 17.3832 34.1007 18.1924 33.7782 18.1924C33.4584 18.1924 34.2995 17.1241 34.6516 16.6647Z" fill="white"/>
</svg>
