<svg width="60" height="60" viewBox="0 0 60 60" fill="none" xmlns="http://www.w3.org/2000/svg">
<rect width="60" height="60" rx="10" fill="#004FC7" fill-opacity="0.1"/>
<path d="M16.4912 21.8579C16.7631 21.7522 17.0577 21.6208 17.3807 21.4551C16.3326 24.9811 15.715 28.6728 15.1995 32.1416C15.0125 33.4189 14.8341 34.6675 14.7406 35.9419C14.7236 36.1762 14.6953 36.4162 14.6669 36.6534C14.5791 37.3963 14.4885 38.165 14.6698 38.9679C14.8624 39.8251 15.4544 40.3766 16.1796 40.3766C16.5195 40.3766 16.8623 40.2566 17.1937 40.0165C18.086 39.3736 18.1002 38.2878 18.1144 37.4935C18.1172 37.3306 18.1172 37.1734 18.1285 37.0249C18.2107 35.8333 18.3495 34.5847 18.5534 33.2017L18.6157 32.7731C19.2984 28.1499 20.0038 23.3695 22.1113 19.2435L22.2983 18.8777C23.0206 17.4919 24.0093 15.5917 23.3889 13.8402C23.1566 13.1858 22.5532 12.7629 21.8507 12.7629C21.5448 12.7629 21.236 12.8487 20.9556 13.0115C20.4627 13.3058 20.1171 13.7573 19.814 14.1545C19.661 14.3545 19.5166 14.5459 19.3693 14.6917C18.4656 15.6032 17.579 16.4804 16.63 17.2119C16.1909 17.5519 15.7179 17.8662 15.3128 18.1348C15.2505 18.1777 15.1598 18.2262 15.0578 18.2834C14.8482 18.4034 14.6074 18.5405 14.4233 18.6806C14.3355 18.7491 14.2364 18.8148 14.1429 18.8806C13.633 19.2292 12.7803 19.8092 13.0523 20.9607C13.1429 21.335 13.4517 21.9837 14.5225 22.1065C15.2335 22.1865 15.817 22.1123 16.4912 21.8579Z" fill="#ED6C30"/>
<path d="M21.3918 31.733C22.0008 32.9617 23.0121 33.8017 24.403 34.2303C24.7769 34.3446 25.1565 34.4046 25.5389 34.4046C29.2413 34.4046 31.904 29.1556 32.6151 27.1355C32.8955 26.344 33.1249 25.5897 33.3119 24.8639C33.3261 25.0525 33.3431 25.2382 33.3686 25.4268C33.5838 26.9983 34.2467 28.2956 35.2891 29.1756C35.9718 29.7528 36.9803 30.1729 37.9916 30.3015C38.3881 30.3529 38.8045 30.3786 39.204 30.3786C39.9546 30.3786 40.6005 30.29 41.1161 30.1129C41.575 29.9557 42.0225 29.7443 42.4474 29.4814C44.3652 28.2899 45.4473 26.3326 46.0167 24.8982C47.3764 21.4865 47.603 16.5489 44.8949 13.7716C44.2458 13.106 43.4367 12.6217 42.5466 12.3657C42.3766 12.3172 42.2038 12.2829 42.0282 12.2486L41.8412 12.2114C41.7704 12.1972 41.6968 12.1686 41.6259 12.1457C41.5325 12.1143 41.4362 12.0829 41.3427 12.0571C41.1925 12.02 41.0537 12 40.9008 12H40.8979C40.4702 12.0057 40.1076 12.12 39.7847 12.2229C39.6204 12.2743 39.4561 12.3286 39.2833 12.36C38.3173 12.54 37.4024 12.8715 36.5214 13.1915C36.0002 13.383 35.5044 13.563 34.9974 13.7144C33.6632 14.1116 32.5726 14.1287 31.0032 13.7544L30.8871 13.7259C30.5557 13.643 30.2696 13.5687 29.737 13.6916C29.4764 13.7487 29.1223 13.8287 28.822 14.2202L28.7427 14.3488L28.7144 14.4059L28.6379 14.4459C25.7117 16.0575 23.2756 19.2263 21.7799 23.3638C21.1992 24.9496 20.0151 28.9442 21.3918 31.733ZM24.2217 27.5841C24.454 24.8382 25.7344 21.8808 27.7428 19.472C28.5388 18.5177 29.1025 18.0348 29.4226 18.0348C29.55 18.0348 29.7738 18.2605 29.9919 18.8948C30.4112 20.1149 30.4622 21.5608 30.1421 23.1923C30.0288 23.7666 29.8701 24.3581 29.6662 24.9439C29.179 26.3554 28.5982 27.827 27.638 29.0099C27.2669 29.4671 26.7258 29.85 26.1536 30.0557C25.5134 30.2872 25.046 30.2443 24.7259 29.89C24.3293 29.4585 24.1367 28.5756 24.2217 27.5841ZM37.4505 20.6521C37.7111 19.7749 38.1389 18.8834 38.7224 18.0062L38.8017 17.889C39.1161 17.4176 39.8442 16.3146 40.2889 16.1232C40.4475 16.0546 40.5977 15.9917 40.7365 15.9346H40.7393C41.4871 15.9346 42.0537 16.1803 42.4729 16.6861C43.4191 17.829 43.4247 20.0492 43.1386 21.6036C42.6486 24.2953 41.439 25.9354 39.4419 26.6097C38.6516 26.8755 38.1049 26.784 37.7168 26.2611C36.833 25.061 36.9973 22.1808 37.4505 20.6521ZM33.785 19.3577C33.7283 18.9148 33.6462 18.4834 33.5385 18.0719C33.513 17.9748 33.4762 17.8748 33.4365 17.7719C33.5555 17.7433 33.7056 17.729 33.8614 17.7147C34.0314 17.7005 34.1985 17.6833 34.3572 17.6519C34.5215 17.6204 34.6773 17.5833 34.8189 17.5462C34.36 18.3748 34.0682 19.272 33.853 20.1292C33.8388 19.8663 33.819 19.6092 33.785 19.3577ZM40.1898 32.2416L39.2521 32.3873C33.8501 33.2074 29.111 34.3361 24.7684 35.839C23.5645 36.2534 22.2699 36.7363 20.8054 37.3077C20.695 37.3506 20.5845 37.3849 20.474 37.4192C19.9698 37.5763 18.9188 37.9021 19.052 39.1879C19.1426 40.0279 19.7233 40.6166 20.4627 40.6166H20.5363C20.8196 40.6023 21.083 40.4908 21.3153 40.3937C21.406 40.3565 21.4938 40.3165 21.5731 40.2937C21.9782 40.1851 22.4059 40.0508 22.9215 39.8708C27.6266 38.2364 32.3488 36.7534 36.9548 35.4676L38.4136 35.0647C39.1785 34.8532 39.9461 34.6447 40.7081 34.4275C41.2549 34.2703 41.5806 33.776 41.507 33.2274C41.4192 32.5959 40.8554 32.1387 40.1898 32.2416ZM45.5408 35.0218L43.1981 35.5304C38.6091 36.5248 33.8614 37.5535 29.2781 38.9536C26.3576 39.8451 23.5503 40.9166 20.4485 42.1252C18.9047 42.7253 17.4317 43.5168 16.1909 44.214C16.0918 44.2711 15.97 44.3283 15.8397 44.3883C15.2731 44.6569 14.497 45.0255 14.2477 45.7513C13.9474 46.6228 14.4998 47.4914 15.2051 47.8286C15.4459 47.9429 15.6782 48 15.9105 48C16.2646 48 16.5592 47.8686 16.7773 47.7543C16.9954 47.6371 17.2249 47.5343 17.4543 47.4314C17.6696 47.3342 17.8849 47.2371 18.0917 47.1314C24.1339 44.0825 30.6803 41.8995 36.3372 40.0937C38.1077 39.5279 40.017 38.9593 42.1812 38.3564L42.5267 38.2592C43.7193 37.9249 44.9147 37.5935 46.1073 37.2534C46.6654 37.0934 46.9996 36.5791 46.9175 36.0048C46.8984 35.8457 46.8465 35.6924 46.7652 35.5547C46.6838 35.4171 46.5748 35.2981 46.4451 35.2055C46.3154 35.1129 46.168 35.0488 46.0122 35.0171C45.8565 34.9855 45.6959 34.9871 45.5408 35.0218Z" fill="#ED6C30"/>
</svg>
