<svg width="60" height="60" viewBox="0 0 60 60" fill="none" xmlns="http://www.w3.org/2000/svg">
<rect width="60" height="60" rx="10" fill="#004FC7" fill-opacity="0.1"/>
<path d="M37.7573 15.9084L38.9354 13.8623L41.7171 15.473L40.5391 17.5191L37.7573 15.9084ZM37.4564 17.4308L38.1796 16.1746L39.9876 17.2215L39.2644 18.4777L37.4564 17.4308ZM27.0273 11H32.9744V13.3868H27.0273V11ZM28.2114 13.3928H31.7903V16.6828H28.2114V13.3928Z" fill="#232323"/>
<path d="M30 49C39.3888 49 47 41.3672 47 31.9516C47 22.536 39.3888 14.9032 30 14.9032C20.6112 14.9032 13 22.536 13 31.9516C13 41.3672 20.6112 49 30 49Z" fill="#19699D"/>
<path d="M30.0001 45.3511C22.6334 45.3511 16.6387 39.3423 16.6387 31.9516C16.6387 24.564 22.6304 18.5552 30.0001 18.5552C37.3667 18.5552 43.3585 24.567 43.3585 31.9516C43.3615 39.3423 37.3667 45.3511 30.0001 45.3511Z" fill="white"/>
<path d="M29.9999 17.1252C21.8459 17.1252 15.2129 23.7801 15.2129 31.9544C15.2129 40.1316 21.8459 46.7835 29.9999 46.7835C38.1539 46.7835 44.7869 40.1316 44.7869 31.9544C44.7869 23.7771 38.1539 17.1252 29.9999 17.1252ZM29.9999 45.3508C22.6332 45.3508 16.6385 39.342 16.6385 31.9514C16.6385 24.5637 22.6303 18.5549 29.9999 18.5549C37.3666 18.5549 43.3583 24.5667 43.3583 31.9514C43.3613 39.342 37.3666 45.3508 29.9999 45.3508Z" fill="#BEE8F1"/>
<path d="M31.381 30.166V24.0226H31.0648V20.5651C31.0648 20.1045 30.692 19.7306 30.2327 19.7306H29.7645C29.3052 19.7306 28.9324 20.1045 28.9324 20.5651V24.0226H28.6162V30.166C27.969 30.6685 27.5932 31.5059 27.7841 32.4272C27.966 33.3065 28.6729 34.0124 29.5527 34.1799C30.9962 34.455 32.2608 33.3544 32.2608 31.9516C32.2638 31.2218 31.9148 30.5817 31.381 30.166ZM29.2902 32.4272C29.2753 32.4032 29.2634 32.3763 29.2515 32.3524C29.1859 32.2327 29.1471 32.0982 29.1471 31.9516C29.1471 31.808 29.1859 31.6705 29.2515 31.5508C29.3946 31.2816 29.675 31.0962 30.0001 31.0962C30.3252 31.0962 30.6055 31.2846 30.7487 31.5538C30.8113 31.6734 30.8531 31.808 30.8531 31.9516C30.8531 32.0982 30.8143 32.2327 30.7487 32.3524C30.7367 32.3793 30.7248 32.4062 30.7099 32.4272C30.6174 32.5647 30.4892 32.6724 30.3371 32.7382C30.3341 32.7412 30.3281 32.7412 30.3252 32.7442C30.2267 32.7831 30.1164 32.807 30.0031 32.807C29.8867 32.807 29.7794 32.7831 29.681 32.7442C29.678 32.7412 29.672 32.7412 29.669 32.7382C29.511 32.6724 29.3827 32.5647 29.2902 32.4272Z" fill="#232323"/>
<path d="M41.5542 32.8101C42.0252 32.8101 42.4071 32.4271 42.4071 31.9547C42.4071 31.4822 42.0252 31.0992 41.5542 31.0992C41.0831 31.0992 40.7012 31.4822 40.7012 31.9547C40.7012 32.4271 41.0831 32.8101 41.5542 32.8101Z" fill="#232323"/>
<path d="M40.4333 26.8998C40.629 26.7859 40.7718 26.599 40.8305 26.3798C40.8891 26.1607 40.8589 25.9272 40.7465 25.7303C40.633 25.5348 40.4471 25.3922 40.2293 25.3334C40.0115 25.2746 39.7794 25.3044 39.5833 25.4163C39.3877 25.5302 39.2449 25.7171 39.1862 25.9362C39.1275 26.1553 39.1577 26.3889 39.2702 26.5857C39.3258 26.6831 39.4001 26.7685 39.4887 26.837C39.5774 26.9056 39.6786 26.9559 39.7867 26.985C39.8948 27.0142 40.0075 27.0217 40.1185 27.0071C40.2295 26.9924 40.3365 26.956 40.4333 26.8998ZM36.2042 21.1781C36.1074 21.1218 36.0004 21.0853 35.8894 21.0706C35.7784 21.0559 35.6656 21.0634 35.5575 21.0926C35.4494 21.1218 35.3482 21.1721 35.2595 21.2407C35.1709 21.3092 35.0966 21.3947 35.0411 21.4921C34.9851 21.5893 34.9489 21.6966 34.9343 21.8079C34.9198 21.9191 34.9273 22.0322 34.9564 22.1405C34.9855 22.2489 35.0356 22.3504 35.1039 22.4393C35.1721 22.5282 35.2572 22.6027 35.3542 22.6586C35.7628 22.8949 36.2847 22.7543 36.5174 22.3446C36.5734 22.2474 36.6098 22.1401 36.6244 22.0288C36.639 21.9176 36.6315 21.8045 36.6024 21.6961C36.5733 21.5877 36.5232 21.4862 36.4548 21.3973C36.3865 21.3084 36.3013 21.2339 36.2042 21.1781ZM23.7972 21.1751C23.6018 21.2885 23.4591 21.4749 23.4004 21.6935C23.3418 21.9121 23.3718 22.1451 23.484 22.3416C23.5397 22.439 23.614 22.5244 23.7026 22.5929C23.7912 22.6614 23.8925 22.7117 24.0006 22.7409C24.1086 22.7701 24.2214 22.7776 24.3324 22.7629C24.4433 22.7483 24.5503 22.7118 24.6472 22.6556C24.7441 22.5997 24.8291 22.525 24.8972 22.436C24.9653 22.347 25.0152 22.2454 25.044 22.137C25.0729 22.0286 25.08 21.9156 25.0652 21.8044C25.0503 21.6932 25.0137 21.5861 24.9574 21.4892C24.8448 21.2935 24.6594 21.1506 24.442 21.0918C24.2245 21.0329 23.9927 21.0629 23.7972 21.1751Z" fill="#232323"/>
<path d="M20.732 26.5853C20.9675 26.1762 20.8277 25.653 20.4197 25.4168C20.0117 25.1807 19.49 25.3209 19.2545 25.7301C19.019 26.1393 19.1589 26.6624 19.5669 26.8986C19.9749 27.1347 20.4965 26.9945 20.732 26.5853Z" fill="#232323"/>
<path d="M18.4467 32.807C18.9178 32.807 19.2997 32.424 19.2997 31.9516C19.2997 31.4792 18.9178 31.0962 18.4467 31.0962C17.9756 31.0962 17.5938 31.4792 17.5938 31.9516C17.5938 32.424 17.9756 32.807 18.4467 32.807Z" fill="#232323"/>
<path d="M19.5678 37.0063C19.3729 37.1201 19.2307 37.3065 19.172 37.525C19.1134 37.7434 19.1431 37.9762 19.2547 38.1728C19.3104 38.2701 19.3847 38.3554 19.4734 38.4239C19.562 38.4923 19.6633 38.5426 19.7713 38.5717C19.8793 38.6009 19.992 38.6084 20.103 38.5939C20.2139 38.5793 20.3209 38.5429 20.4178 38.4868C20.515 38.4311 20.6002 38.3566 20.6686 38.2677C20.737 38.1789 20.7871 38.0773 20.8162 37.9689C20.8454 37.8605 20.8528 37.7474 20.8382 37.6361C20.8235 37.5248 20.7871 37.4175 20.731 37.3204C20.618 37.1243 20.4322 36.9811 20.2141 36.9222C19.9961 36.8634 19.7637 36.8936 19.5678 37.0063Z" fill="#232323"/>
<path d="M24.9625 42.4161C25.198 42.007 25.0582 41.4838 24.6502 41.2477C24.2421 41.0115 23.7205 41.1517 23.485 41.5609C23.2495 41.9701 23.3893 42.4932 23.7974 42.7294C24.2054 42.9655 24.727 42.8253 24.9625 42.4161Z" fill="#232323"/>
<path d="M30.0014 44.3969C30.4725 44.3969 30.8544 44.0139 30.8544 43.5414C30.8544 43.069 30.4725 42.686 30.0014 42.686C29.5303 42.686 29.1484 43.069 29.1484 43.5414C29.1484 44.0139 29.5303 44.3969 30.0014 44.3969Z" fill="#232323"/>
<path d="M36.2048 42.7299C36.6128 42.4938 36.7527 41.9707 36.5172 41.5615C36.2817 41.1523 35.7601 41.012 35.3521 41.2482C34.944 41.4843 34.8042 42.0075 35.0397 42.4167C35.2751 42.8258 35.7968 42.9661 36.2048 42.7299Z" fill="#232323"/>
<path d="M40.7442 38.1749C40.9791 37.7673 40.8388 37.2453 40.431 37.0089C40.0231 36.7725 39.502 36.9113 39.2671 37.3189C39.0322 37.7265 39.1724 38.2485 39.5803 38.4849C39.9882 38.7213 40.5092 38.5825 40.7442 38.1749Z" fill="#232323"/>
</svg>
