<svg width="60" height="60" viewBox="0 0 60 60" fill="none" xmlns="http://www.w3.org/2000/svg">
<rect width="60" height="60" rx="10" fill="#004FC7" fill-opacity="0.1"/>
<path d="M46.3073 45.5791L34.7444 20.1104L28.5977 23.0364L41.2456 47.9924C41.7358 49.0148 43.2617 49.3095 44.655 48.6433C46.0484 47.9801 46.7974 46.6015 46.3073 45.5791Z" fill="#F79329"/>
<path d="M46.7793 13.1805C42.7226 9.82763 37.3773 9.56665 33.5333 10.4018C32.5376 10.6167 31.6067 11.0435 30.9254 11.3383C29.7324 11.8571 27.3064 13.1621 27.3064 13.1621L24.2731 14.688C24.1961 14.7249 24.1282 14.774 24.0543 14.82C23.4069 15.1302 22.6609 15.4311 21.9457 15.5784C21.0579 15.7596 20.4846 15.4003 19.455 15.5232C18.9618 15.5815 18.447 15.7442 18.0123 15.9162C17.8613 15.9561 17.7102 16.0114 17.5623 16.085L17.254 16.2416C17.0845 16.3215 16.9766 16.3829 16.9766 16.3829L14.2793 17.7369C13.2096 18.2742 12.7102 19.4563 13.1726 20.3621L17.7996 29.4903C18.2589 30.396 19.5074 30.6969 20.5801 30.1596L23.2744 28.8025C23.2744 28.8025 23.3884 28.7503 23.5549 28.6613L23.8631 28.5047C24.008 28.431 24.1467 28.3419 24.267 28.2468C24.6646 27.9981 25.4291 26.0975 25.7713 25.7383C26.4834 24.983 27.0691 26.0422 28.2343 25.9993C28.894 25.9747 29.5968 25.6216 29.7756 25.5295L30.0191 25.4067C30.2226 25.3084 30.4014 25.2163 30.4969 25.1672L35.836 22.4806C36.582 22.106 37.0382 21.4244 37.0999 20.7336C37.1153 20.5494 37.1184 19.9598 37.1061 19.8186C36.9951 18.3387 36.9211 16.3245 38.4778 15.5416C40.1856 14.685 42.5592 15.3635 42.5592 15.3635C42.5592 15.3635 44.6801 16.0574 46.1289 15.0258C47.5808 13.991 46.7793 13.1805 46.7793 13.1805Z" fill="#78A3AD"/>
<path d="M30.9123 10.5859C31.1435 10.9083 31.2853 11.3443 31.4271 11.7128C31.5566 12.0474 31.4795 12.4466 31.2822 12.7475C31.0788 13.0576 30.7335 13.3308 30.4345 13.5427C29.8211 13.9726 29.2045 14.3563 28.514 14.6634C28.1719 14.8169 27.8204 14.8998 27.4567 14.9888C27.1145 15.0779 26.7569 15.1915 26.3963 15.1884C26.0757 15.1853 25.7273 15.2253 25.4067 15.1884C25.006 15.1393 24.7871 15.1516 24.5498 14.8169C24.3309 14.4976 24.1244 14.1967 23.9702 13.8375C23.7545 13.3401 23.7206 12.9931 24.0812 12.551C24.7625 11.7158 25.8476 11.2307 26.7939 10.8039C27.6817 10.4048 28.7021 10.0824 29.6638 10.0824C30.2341 10.0824 30.5825 10.1223 30.9123 10.5859Z" fill="#F79329"/>
<path d="M19.4823 20.0888C20.071 19.6897 20.2807 19.4532 20.3423 19.1247C20.4225 18.6826 20.0895 18.1483 19.8121 17.783C19.5562 17.4452 18.9644 17.4944 18.3047 17.7953C17.645 18.0961 16.2486 18.7256 16.0729 18.833C15.8294 18.9804 15.6043 19.1554 15.4718 19.3581C15.0988 19.9261 15.3485 20.7428 15.8602 21.1573C16.1684 21.406 16.5568 21.3968 16.9514 21.2863C17.3737 21.1665 19.0938 20.3498 19.4823 20.0888ZM25.0371 18.9098C26.113 18.7655 27.4077 18.3019 27.7683 18.1913C29.1093 17.7768 30.7801 17.0369 32.3275 16.1065C33.9336 15.1425 34.5039 14.0678 35.3886 13.4967C36.0822 13.0485 37.0316 12.8673 37.7684 12.5357C37.8485 12.4989 38.2739 12.3146 38.3386 12.0936C38.4496 11.7221 37.9626 11.59 37.1888 11.5685C36.822 11.5593 35.1666 11.5655 33.5976 12.0291C33.5082 12.0537 33.129 12.1826 33.0304 12.4651C32.5896 13.7362 32.2597 14.3718 30.9835 15.0964C29.8183 15.7565 28.539 16.3522 26.9329 16.7882C25.3269 17.2242 25.1142 16.4074 24.3127 16.739C24.1247 16.8158 23.8842 16.9233 23.6808 17.0307C23.2338 17.2671 23.2985 17.5773 23.391 17.7615C23.5359 18.0501 23.7517 18.4124 23.8503 18.6058C24.0445 18.9896 24.7104 18.9528 25.0371 18.9098Z" fill="white"/>
</svg>
