<svg width="60" height="60" viewBox="0 0 60 60" fill="none" xmlns="http://www.w3.org/2000/svg">
<rect width="60" height="60" rx="10" fill="#004FC7" fill-opacity="0.1"/>
<path d="M24.4951 39.2025L26.0536 32.7633L21.0938 28.5847L27.5612 28.0596L29.9995 22.0229L32.4379 28.0596L38.9053 28.5847L33.9455 32.7633L35.504 39.2025L29.9995 35.6714L24.4951 39.2025Z" fill="#FCC21B"/>
<path d="M15.6907 20.309C16.4552 20.7606 17.209 21.2313 17.9842 21.6692C19.0465 22.2732 20.1195 22.9043 21.2434 23.375C21.6378 23.5409 21.9543 23.2525 22.1126 22.9125C22.2842 22.5398 22.0831 22.2868 21.9141 21.9576C21.4741 21.1061 21.053 20.2437 20.5487 19.4303C20.039 18.6033 19.6474 17.6947 19.0465 16.9275L18.9928 16.8622C18.6951 16.4814 18.3249 15.9618 17.7938 16.0053C17.2788 16.0488 16.9595 16.4868 16.592 16.8078C15.9724 17.3465 15.4842 18.0483 15.0764 18.7584C14.9048 19.0603 14.7116 19.4657 14.9477 19.7976C15.1194 20.0315 15.4493 20.1676 15.6907 20.309ZM19.2718 36.6942C18.4134 36.8956 17.547 37.0778 16.702 37.3499C15.8517 37.6219 14.9504 37.7661 14.1242 38.1361L14.0571 38.1687C13.6467 38.351 13.0968 38.5686 13.0136 39.0638C12.9305 39.548 13.247 39.9397 13.4455 40.3505C13.7781 41.0442 14.2878 41.6563 14.8243 42.195C15.055 42.4262 15.3688 42.6955 15.7176 42.5541C15.9697 42.4561 16.1682 42.1814 16.3453 41.9964C16.9273 41.4033 17.5255 40.8212 18.0942 40.2172C18.8829 39.3875 19.693 38.555 20.377 37.6382C20.6157 37.3145 20.436 36.9581 20.1678 36.7351C19.8781 36.4929 19.6045 36.6181 19.2718 36.6942ZM38.7546 23.375C39.8785 22.9016 40.9488 22.2705 42.0138 21.6692C42.7863 21.2313 43.5428 20.7606 44.31 20.309C44.5487 20.1676 44.8813 20.0315 45.0503 19.7949C45.2891 19.463 45.0959 19.0603 44.9216 18.7557C44.5165 18.0456 44.0256 17.3437 43.406 16.8051C43.0385 16.4841 42.722 16.0461 42.2042 16.0026C41.6758 15.959 41.3029 16.4786 41.0052 16.8595L40.9515 16.9248C40.348 17.6947 39.959 18.6006 39.4467 19.4276C38.945 20.2437 38.5212 21.1034 38.0813 21.9549C37.9123 22.2868 37.7111 22.5398 37.8828 22.9098C38.041 23.2525 38.3603 23.5409 38.7546 23.375ZM45.9436 38.1714L45.8739 38.1388C45.0503 37.7661 44.149 37.6246 43.296 37.3526C42.451 37.0805 41.5873 36.8983 40.7262 36.697C40.3909 36.6208 40.1173 36.4957 39.8276 36.7405C39.562 36.9636 39.3796 37.3199 39.6183 37.6437C40.3024 38.5605 41.1178 39.3929 41.9011 40.2227C42.4725 40.8266 43.068 41.4088 43.6501 42.0018C43.8298 42.1895 44.0283 42.4616 44.2805 42.5595C44.6292 42.701 44.943 42.4289 45.1737 42.2004C45.7102 41.6618 46.2226 41.0497 46.5552 40.356C46.7537 39.9425 47.0676 39.5507 46.9871 39.0692C46.9012 38.5714 46.354 38.3537 45.9436 38.1714Z" fill="#F79329"/>
<path d="M36.8276 33.7262L44.0273 27.6624C44.258 27.4692 44.3492 27.1536 44.258 26.8653C44.2135 26.7242 44.1289 26.5997 44.0149 26.5073C43.9008 26.4148 43.7624 26.3586 43.6169 26.3457L34.2202 25.5867L30.6794 16.8187C30.6235 16.682 30.529 16.5651 30.4078 16.4828C30.2865 16.4005 30.1439 16.3564 29.998 16.3562C29.7003 16.3562 29.4293 16.5385 29.3167 16.8187L25.7758 25.5867L16.3791 26.3457C16.0787 26.3701 15.8292 26.5742 15.738 26.8653C15.6468 27.1564 15.738 27.4692 15.9687 27.6624L23.1711 33.7262L20.9071 43.0764C20.8374 43.3702 20.9501 43.6803 21.1915 43.8599C21.4356 44.0367 21.7629 44.0476 22.015 43.8844L29.998 38.759L37.9811 43.8816C38.2332 44.0421 38.5605 44.034 38.8046 43.8572C39.046 43.6803 39.1613 43.3702 39.0889 43.0737L36.8276 33.7262ZM24.4936 39.2025L26.0548 32.7632L21.0922 28.5846L27.5597 28.0595L29.998 22.0229L32.4364 28.0595L38.9038 28.5846L33.9439 32.7632L35.5024 39.2025L29.998 35.6713L24.4936 39.2025Z" fill="#F79329"/>
</svg>
