<svg width="60" height="60" viewBox="0 0 60 60" fill="none" xmlns="http://www.w3.org/2000/svg">
<rect width="60" height="60" rx="10" fill="#004FC7" fill-opacity="0.1"/>
<path d="M39.3363 22.2267C41.4629 21.7549 44.2328 19.6459 44.6543 18.6072C44.9015 17.9992 43.6687 17.0492 43.3391 16.666C42.5848 15.792 42.889 15.3614 43.1806 14.3195C43.5134 13.1352 42.7242 11.8274 41.6055 11.3143C40.4867 10.8013 39.1493 10.9628 38.0242 11.4632C36.8992 11.9635 35.9389 12.7679 34.9976 13.5595C34.3099 13.1257 33.2133 11.2098 31.4385 12.4544C30.212 13.3125 30.1011 15.1809 30.2596 16.6724C30.6304 20.1145 31.4797 21.9005 33.0802 22.3819C35.1022 22.9899 37.3397 22.67 39.3363 22.2267Z" fill="#FFCA28"/>
<path d="M42.7904 12.3245C42.521 16.9636 37.9921 20.0416 35.8434 21.397L37.2378 22.594C37.2378 22.594 38.1221 22.613 39.3327 22.2267C41.4086 21.568 44.4415 19.706 44.6507 18.6071C44.9581 17.008 43.3164 17.3563 42.9456 16.0928C42.7523 15.4246 43.8869 14.1611 42.7904 12.3245ZM35.0004 13.5626C35.0004 13.5626 34.1922 12.7361 33.5932 12.3593C33.2953 12.9198 33.083 13.5278 32.9784 14.1548C32.7914 15.2568 32.9784 16.8211 33.4189 17.9865C33.4886 18.167 33.7485 18.1385 33.777 17.9485C34.1573 15.4436 35.0004 13.5626 35.0004 13.5626Z" fill="#E2A610"/>
<path d="M29.3535 21.8181C29.3535 21.8181 19.4687 22.8852 15.0096 31.4606C10.5504 40.0359 14.3408 45.2356 18.3531 47.1293C22.3654 49.023 32.4753 49.6911 39.0514 48.1331C45.6276 46.5751 47.2724 43.3451 46.965 40.2259C46.5182 35.6723 42.2841 32.8729 42.2841 32.8729C42.2841 32.8729 42.452 27.2489 38.0848 23.5977C34.2088 20.3551 29.3535 21.8181 29.3535 21.8181Z" fill="#FFCA28"/>
<path d="M33.4093 36.2489C31.289 33.5762 28.7853 33.2183 27.9835 32.2588C27.5462 31.7363 27.2895 31.2075 27.3877 30.552C27.4923 29.8553 28.3004 29.374 28.928 29.2568C29.6601 29.1175 31.4063 29.1903 32.8737 30.5868C33.2223 30.9162 33.0955 31.4292 33.086 31.8883C33.0607 32.8732 34.471 33.8295 35.6119 33.0062C36.756 32.1797 35.8781 30.3398 35.1397 29.4468C34.5819 28.7723 32.5599 27.2872 30.0467 27.0528C29.34 26.9863 26.4972 26.5652 24.8555 29.6843C24.3833 30.5805 24.209 32.7465 26.681 34.5768C27.1976 34.96 29.8787 36.3217 30.6235 37.2052C31.9134 38.7347 31.0292 40.0805 30.0213 40.2579C27.2736 40.7392 25.7175 39.254 25.4291 38.4402C25.2231 37.8607 25.4386 37.2337 25.1724 36.689C24.8999 36.1285 24.3421 35.9069 23.7526 36.0937C21.8193 36.708 22.4342 38.8202 23.2899 39.9824C24.2058 41.2269 25.3309 41.9774 26.5954 42.389C31.3144 43.9249 33.5836 41.4992 33.9797 39.7227C34.2713 38.4212 34.2396 37.2939 33.4093 36.2489Z" fill="#6B4B46"/>
<path d="M32.2688 25.2478C28.2534 33.8168 27.5625 44.6374 27.5625 44.6374" stroke="#6B4B46" stroke-width="5" stroke-miterlimit="10"/>
<path d="M35.6001 19.8549C38.2749 20.7257 38.8676 23.1419 38.6742 23.8006C38.4429 24.5732 35.4796 21.5649 31.0744 21.7454C29.5341 21.8087 29.981 20.8651 30.6941 20.3204C31.6354 19.6016 33.2168 19.0822 35.6001 19.8549Z" fill="#6D4C41"/>
<path d="M35.6001 19.8549C38.2749 20.7257 38.8676 23.1419 38.6742 23.8006C38.4429 24.5732 35.4796 21.5649 31.0744 21.7454C29.5341 21.8087 29.981 20.8651 30.6941 20.3204C31.6354 19.6016 33.2168 19.0822 35.6001 19.8549Z" fill="#6B4B46"/>
<path d="M40.2967 28.3732C40.6327 28.142 41.7609 28.541 42.0779 30.7482C42.2332 31.828 42.2807 32.873 42.2807 32.873C42.2807 32.873 40.9496 31.6792 40.5091 30.84C39.9545 29.7792 39.739 28.7532 40.2967 28.3732Z" fill="#E2A610"/>
</svg>
